<?xml version="1.0" encoding="utf-8"?>
<!-- Svg Vector Icons : http://www.onlinewebfonts.com/icon -->
<!DOCTYPE svg PUBLIC "-//W3C//DTD SVG 1.1//EN" "http://www.w3.org/Graphics/SVG/1.1/DTD/svg11.dtd">
<svg version="1.1" xmlns="http://www.w3.org/2000/svg" xmlns:xlink="http://www.w3.org/1999/xlink" x="0px" y="0px" viewBox="0 0 1000 1000" enable-background="new 0 0 1000 1000" xml:space="preserve">
<metadata> Svg Vector Icons : http://www.onlinewebfonts.com/icon </metadata>
<g><g transform="translate(0.000000,88.000000) scale(0.100000,-0.100000)"><path d="M4554.5,334.5c0-423.2-22.3-445.5-467.7-568C2594.5-634.3,1514.3-1714.5,1113.4-3206.8c-122.5-445.5-144.8-467.8-568-467.8c-445.5,0-445.5,0-445.5-445.5s0-445.5,445.5-445.5c423.2,0,445.5-22.3,568-467.7c400.9-1492.2,1481.1-2572.5,2973.4-2973.4c445.5-122.5,467.7-144.7,467.7-567.9c0-445.4,0-445.4,445.5-445.4c445.4,0,445.4,0,445.4,445.4c0,423.2,22.3,445.5,467.8,567.9c1492.2,401,2572.5,1481.2,2973.4,2973.4c122.5,445.4,144.7,467.7,567.9,467.7c445.4,0,445.4,0,445.4,445.5s0,445.5-445.4,445.5c-423.2,0-445.5,22.3-567.9,467.8c-401,1492.3-1481.2,2572.5-2973.4,2973.4c-445.4,122.5-467.8,144.8-467.8,568c0,445.5,0,445.5-445.4,445.5C4554.5,780,4554.5,780,4554.5,334.5z M6002.3-1180c1169.3-345.2,2115.9-1659.3,2115.9-2951.1c0-1625.9-1481.1-3107-3107-3107c-1681.6,0-3129.3,1447.7-3129.3,3118.2c0,1659.3,1403.2,3084.8,3073.6,3107C5200.4-1001.8,5668.2-1079.8,6002.3-1180z" fill="#003091"/><path d="M4276.1-2494.1c-1124.8-490-1392-1982.3-512.3-2862c1247.3-1258.5,3296.4-133.7,2973.4,1625.9C6536.8-2683.4,5278.4-2048.6,4276.1-2494.1z" fill="#003091"/></g></g>
</svg>